#!OML:ASF F:\twosubjects\two\wednesday\Session 1\rory1.ASF
:FULLY-SPECIFIED
:DEGREES
115
root 1.89023 18.3829 2.12032 4.19845 -4.05829 -3.96724
lowerback 1.4197 1.79693 4.55347
upperback 1.55435 2.4203 1.20084
thorax 0.938224 1.24828 -1.32653
lowerneck -14.4507 -1.6188 -2.07658
upperneck 11.7968 -1.67243 -0.549845
head 5.95436 -0.950585 0.00761427
rclavicle 2.7159e-014 2.74323e-014
rhumerus -9.74948 10.4851 -83.6767
rradius 54.8202
rwrist -7.50839
rhand -20.2867 37.3788
rfingers 7.12502
rthumb 6.06304 7.48556
lclavicle 2.7159e-014 2.74323e-014
lhumerus -42.2594 -34.9577 73.9727
lradius 88.4304
lwrist 5.14459
lhand -27.0608 8.59757
lfingers 7.12502
lthumb -0.478782 38.5768
rfemur 14.8816 4.65884 29.8183
rtibia 9.40564
rfoot -5.24527 2.79106
rtoes -9.57771
lfemur -30.1048 -6.67468 -11.7301
ltibia 18.5986
lfoot -9.21843 7.06609
ltoes -15.9398
116
root 1.89629 18.347 2.33103 4.12068 -4.363 -4.29328
lowerback 1.3603 1.86626 4.67177
upperback 1.58257 2.50801 1.311
thorax 1.00597 1.29421 -1.27648
lowerneck -14.7323 -1.67424 -2.2125
upperneck 12.025 -1.72177 -0.467061
head 6.07649 -0.975847 0.047832
rclavicle 1.96051e-014 4.96962e-015
rhumerus -10.404 10.8096 -83.6182
rradius 55.1715
rwrist -7.63591
rhand -20.2491 37.102
rfingers 7.12502
rthumb 6.09932 7.20979
lclavicle 1.96051e-014 4.96962e-015
lhumerus -42.6796 -34.5724 74.1006
lradius 88.6152
lwrist 4.64237
lhand -26.9386 8.77082
lfingers 7.12502
lthumb -0.360758 38.7503
rfemur 15.1232 4.96536 30.0747
rtibia 10.4226
rfoot -4.81276 3.26205
rtoes -7.07214
lfemur -29.7953 -6.25295 -11.8073
ltibia 19.6451
lfoot -7.95089 6.58948
ltoes -17.6204
117
root 1.90294 18.3305 2.54175 4.2199 -4.45539 -4.12507
lowerback 1.28119 1.86606 4.26873
upperback 1.42915 2.50632 1.33723
thorax 0.872973 1.28483 -1.0264
lowerneck -14.6645 -1.76754 -2.39298
upperneck 12.0009 -1.80172 -0.533533
head 6.05956 -1.02821 0.0489735
rclavicle -2.37796e-014 1.55052e-014
rhumerus -11.2857 11.085 -83.5302
rradius 55.4298
rwrist -7.71735
rhand -20.1202 37.0525
rfingers 7.12502
rthumb 6.22382 7.16392
lclavicle -2.37796e-014 1.55052e-014
lhumerus -43.1994 -34.3848 74.417
lradius 88.661
lwrist 4.17775
lhand -27.5376 8.20278
lfingers 7.12502
lthumb -0.939336 38.1805
rfemur 15.2573 5.28212 29.8641
rtibia 11.17
rfoot -4.13555 3.5063
rtoes -9.06786
lfemur -30.0154 -6.57628 -12.139
ltibia 20.7963
lfoot -6.21524 6.63386
ltoes -17.051
118
root 1.92252 18.3446 2.77252 4.13581 -4.54823 -3.2643
lowerback 1.03089 1.85127 3.40865
upperback 1.41919 2.47199 1.08754
thorax 0.974303 1.26262 -0.794619
lowerneck -14.7154 -1.75096 -2.4661
upperneck 11.9878 -1.76314 -0.528429
head 6.0644 -1.01244 0.0656854
rclavicle -3.90115e-015 -1.68967e-014
rhumerus -12.0101 11.1926 -83.5835
rradius 55.433
rwrist -7.4146
rhand -20.1929 37.341
rfingers 7.12502
rthumb 6.15363 7.45041
lclavicle -3.90115e-015 -1.68967e-014
lhumerus -43.593 -34.3028 74.6814
lradius 88.803
lwrist 4.12337
lhand -28.2199 7.60449
lfingers 7.12502
lthumb -1.59829 37.5783
rfemur 15.4587 5.26676 28.7427
rtibia 12.0947
rfoot -3.57672 4.10966
rtoes -14.4328
lfemur -30.1702 -7.6498 -12.9905
ltibia 21.9076
lfoot -4.85505 7.47797
ltoes -14.8202
119
root 1.93604 18.351 2.99323 3.98434 -4.73779 -2.94307
lowerback 0.971454 1.85149 3.09376
upperback 1.40267 2.47056 0.908795
thorax 0.984673 1.25994 -0.800353
lowerneck -14.9198 -1.70229 -2.43688
upperneck 12.2843 -1.71288 -0.411626
head 6.1933 -0.979575 0.0998379
rclavicle -2.71093e-014 2.01766e-014
rhumerus -12.7768 11.0771 -83.863
rradius 55.3705
rwrist -6.74942
rhand -20.365 37.7351
rfingers 7.12502
rthumb 5.98746 7.83971
lclavicle -2.71093e-014 2.01766e-014
lhumerus -43.8813 -34.0639 74.6019
lradius 88.9872
lwrist 3.36807
lhand -27.4208 7.62146
lfingers 7.12502
lthumb -0.826545 37.5996
rfemur 15.5437 5.36244 28.3043
rtibia 13.497
rfoot -3.19448 4.51523
rtoes -23.446
lfemur -30.2535 -8.6578 -13.1081
ltibia 22.8497
lfoot -4.4077 8.11149
ltoes -11.2368
120
root 1.93953 18.3342 3.20075 3.82447 -4.88814 -2.93274
lowerback 1.18581 1.86254 2.9739
upperback 1.25113 2.49763 0.809634
thorax 0.709225 1.26818 -0.846357
lowerneck -14.7351 -1.73632 -2.54393
upperneck 12.3498 -1.79266 -0.0790327
head 6.18782 -0.996404 0.216836
rclavicle 1.73937e-015 6.75868e-015
rhumerus -13.8297 10.9201 -84.1903
rradius 55.2834
rwrist -6.38647
rhand -20.4103 38.057
rfingers 7.12502
rthumb 5.94373 8.16039
lclavicle 1.73937e-015 6.75868e-015
lhumerus -44.3354 -33.878 74.5839
lradius 89.0233
lwrist 2.482
lhand -25.9197 7.39796
lfingers 7.12502
lthumb 0.62327 37.3768
rfemur 15.2763 5.55133 28.3045
rtibia 15.5047
rfoot -3.0247 4.8729
rtoes -31.2812
lfemur -30.189 -8.96992 -13.0909
ltibia 23.657
lfoot -3.79446 7.62943
ltoes -7.56672
121
root 1.94387 18.3212 3.41972 3.55518 -4.83691 -2.60282
lowerback 1.42823 1.85904 2.57115
upperback 1.09342 2.50262 0.62324
thorax 0.402601 1.26388 -0.825094
lowerneck -14.3729 -1.83005 -2.7541
upperneck 12.142 -1.96399 0.424694
head 6.06989 -1.04748 0.398794
rclavicle 2.74447e-014 -9.01985e-015
rhumerus -14.9344 10.5895 -84.4827
rradius 54.918
rwrist -6.0416
rhand -20.3912 38.4939
rfingers 7.12502
rthumb 5.96218 8.5978
lclavicle 2.74447e-014 -9.01985e-015
lhumerus -45.13 -33.9776 75.0171
lradius 89.0892
lwrist 2.56871
lhand -26.323 7.08553
lfingers 7.12502
lthumb 0.233823 37.0651
rfemur 14.4068 5.61782 27.8705
rtibia 18.3906
rfoot -2.27803 5.69062
rtoes -29.5113
lfemur -29.7176 -8.90087 -13.7209
ltibia 24.3005
lfoot -2.37424 6.70539
ltoes -5.91074
122
root 1.94488 18.3238 3.63741 3.43992 -4.69634 -2.56434
lowerback 1.34659 1.83781 2.39988
upperback 1.07592 2.47062 0.571994
thorax 0.424171 1.24722 -0.779219
lowerneck -14.308 -1.90014 -2.78481
upperneck 11.9929 -2.08012 0.595724
head 6.01551 -1.09081 0.448314
rclavicle -1.32005e-015 -6.02566e-015
rhumerus -15.7372 10.0167 -84.6774
rradius 54.3897
rwrist -5.39688
rhand -20.2721 38.9285
rfingers 7.12502
rthumb 6.0771 9.03564
lclavicle -1.32005e-015 -6.02566e-015
lhumerus -45.4296 -33.9313 75.2227
lradius 89.0451
lwrist 2.28949
lhand -27.1589 7.13312
lfingers 7.12502
lthumb -0.573526 37.1121
rfemur 13.2181 5.83138 27.7499
rtibia 21.3151
rfoot -0.237424 6.38891
rtoes -21.3206
lfemur -29.2828 -8.53107 -14.1101
ltibia 25.0049
lfoot -1.2397 5.94489
ltoes -4.5035
123
root 1.94533 18.3479 3.84378 3.36064 -4.67464 -2.32723
lowerback 1.19826 1.89572 2.1163
upperback 1.18451 2.53992 0.412842
thorax 0.615356 1.28334 -0.776165
lowerneck -14.5063 -2.04567 -2.82091
upperneck 11.9406 -2.27219 0.658762
head 6.03652 -1.17975 0.454576
rclavicle 3.18739e-014 -1.2598e-014
rhumerus -16.4247 9.25416 -84.8027
rradius 53.9261
rwrist -4.77772
rhand -20.1054 39.2951
rfingers 7.12502
rthumb 6.23802 9.4069
lclavicle 3.18739e-014 -1.2598e-014
lhumerus -45.0329 -33.9304 74.9608
lradius 88.8902
lwrist 1.66664
lhand -26.9082 7.13859
lfingers 7.12502
lthumb -0.331434 37.1181
rfemur 11.9679 6.47455 27.3844
rtibia 24.3697
rfoot 2.41917 6.45683
rtoes -9.20183
lfemur -28.7888 -8.03294 -14.7049
ltibia 25.6735
lfoot -1.10622 5.39987
ltoes -2.73174
124
root 1.95204 18.3229 4.04154 3.09034 -4.67739 -1.16446
lowerback 1.43797 1.95747 1.05497
upperback 1.13325 2.61977 -0.095199
thorax 0.40658 1.31654 -0.714143
lowerneck -14.6467 -2.26527 -3.01732
upperneck 12.0907 -2.58295 1.05046
head 6.12106 -1.30798 0.579422
rclavicle -3.01345e-014 1.12313e-014
rhumerus -17.4715 8.50922 -85.0633
rradius 53.4394
rwrist -4.24865
rhand -20.1058 39.5867
rfingers 7.12502
rthumb 6.23763 9.69854
lclavicle -3.01345e-014 1.12313e-014
lhumerus -45.0942 -34.2081 74.8108
lradius 89.043
lwrist 1.69372
lhand -26.3616 6.81634
lfingers 7.12502
lthumb 0.1965 36.796
rfemur 10.9766 6.155 25.8378
rtibia 27.3021
rfoot 4.19695 7.54763
rtoes -9.90633
lfemur -28.3188 -7.76631 -16.3064
ltibia 26.4682
lfoot -1.6726 4.78464
ltoes -2.00697
125
root 1.96088 18.3128 4.24267 2.81356 -4.52502 -5.36831e-005
lowerback 1.61561 1.88042 -0.117063
upperback 1.05383 2.50456 -0.5244
thorax 0.192309 1.25309 -0.505948
lowerneck -14.4156 -2.34947 -3.1285
upperneck 11.9813 -2.73459 1.4079
head 6.0572 -1.35848 0.699397
rclavicle -1.07841e-014 -1.22253e-014
rhumerus -18.5351 7.9287 -85.3932
rradius 52.8093
rwrist -3.6302
rhand -20.2986 39.6512
rfingers 7.12502
rthumb 6.05153 9.75767
lclavicle -1.07841e-014 -1.22253e-014
lhumerus -45.5831 -34.1006 74.7602
lradius 89.2774
lwrist 1.61389
lhand -26.0408 6.83697
lfingers 7.12502
lthumb 0.506307 36.8161
rfemur 9.84746 5.82999 24.26
rtibia 30.2154
rfoot 7.04281 7.961
rtoes -1.08517
lfemur -27.8516 -7.63249 -17.9243
ltibia 27.2359
lfoot -2.2005 3.82319
ltoes -0.964857
126
root 1.96975 18.3033 4.44511 2.64424 -4.32965 0.62397
lowerback 1.36595 1.73407 -0.827621
upperback 1.21324 2.30557 -0.714076
thorax 0.473514 1.14975 -0.288682
lowerneck -14.084 -2.36235 -3.29291
upperneck 11.3577 -2.75586 1.62741
head 5.80996 -1.359 0.799215
rclavicle -2.23633e-015 1.91827e-014
rhumerus -19.222 7.48486 -85.6164
rradius 52.0754
rwrist -2.99192
rhand -20.4631 39.7601
rfingers 7.12502
rthumb 5.89271 9.86206
lclavicle -2.23633e-015 1.91827e-014
lhumerus -45.8358 -33.4367 74.6284
lradius 89.3031
lwrist 1.44411
lhand -26.0662 6.77301
lfingers 7.12502
lthumb 0.481852 36.7522
rfemur 8.54067 5.65862 23.3065
rtibia 33.0198
rfoot 10.2705 7.83454
rtoes 8.38672
lfemur -27.3825 -7.32651 -19.0006
ltibia 27.9431
lfoot -2.70795 2.59347
ltoes -1.19173
127
root 1.97739 18.2946 4.64671 2.65222 -4.26251 0.874226
lowerback 1.00079 1.66497 -1.06169
upperback 1.35602 2.22012 -0.846846
thorax 0.820767 1.10445 -0.27827
lowerneck -14.0218 -2.39812 -3.58021
upperneck 10.9001 -2.78738 1.93681
head 5.6645 -1.36217 0.942701
rclavicle -8.07563e-016 -1.5704e-014
rhumerus -19.9119 6.99135 -85.7673
rradius 51.388
rwrist -2.51303
rhand -20.4611 40.0236
rfingers 7.12502
rthumb 5.89463 10.1256
lclavicle -8.07563e-016 -1.5704e-014
lhumerus -45.7926 -32.9505 74.427
lradius 89.2776
lwrist 1.7261
lhand -25.9418 6.52625
lfingers 7.12502
lthumb 0.60199 36.5051
rfemur 6.83029 5.69753 22.7797
rtibia 36.1358
rfoot 12.7103 8.17518
rtoes 10.6616
lfemur -26.8501 -6.72877 -19.6676
ltibia 28.257
lfoot -3.3481 1.64733
ltoes -4.27541
128
root 1.9827 18.307 4.83569 2.63209 -4.52779 1.09035
lowerback 0.883011 1.70755 -1.26207
upperback 1.40858 2.28034 -1.01201
thorax 0.9395 1.13292 -0.330528
lowerneck -14.1167 -2.3713 -3.70401
upperneck 10.7947 -2.76071 2.21754
head 5.65207 -1.33228 1.05325
rclavicle -1.68967e-014 2.14687e-014
rhumerus -20.6433 6.4627 -85.9725
rradius 50.6092
rwrist -2.18861
rhand -20.328 39.9464
rfingers 7.12502
rthumb 6.02318 10.052
lclavicle -1.68967e-014 2.14687e-014
lhumerus -45.7889 -32.6653 74.0812
lradius 89.4331
lwrist 1.88707
lhand -25.6959 7.08203
lfingers 7.12502
lthumb 0.839407 37.0601
rfemur 4.87761 6.10394 22.3376
rtibia 39.359
rfoot 14.5381 10.0558
rtoes 5.40503
lfemur -26.1871 -6.02147 -20.1715
ltibia 28.2899
lfoot -3.93682 1.19491
ltoes -5.88455
129
root 1.98557 18.3327 5.01304 2.43129 -4.96571 1.61164
lowerback 1.14158 1.82465 -1.84395
upperback 1.3938 2.42835 -1.20536
thorax 0.763774 1.2033 -0.213336
lowerneck -14.2331 -2.42894 -3.79873
upperneck 10.8791 -2.82579 2.28703
head 5.70243 -1.36204 1.08326
rclavicle -2.93207e-014 -9.93923e-016
rhumerus -21.5453 6.00045 -86.1306
rradius 49.8227
rwrist -2.02984
rhand -20.3471 39.5954
rfingers 7.12502
rthumb 6.00468 9.70052
lclavicle -2.93207e-014 -9.93923e-016
lhumerus -46.132 -32.5647 73.9401
lradius 89.6523
lwrist 2.11306
lhand -25.8208 7.20672
lfingers 7.12502
lthumb 0.718832 37.1853
rfemur 2.86616 6.70349 21.6124
rtibia 42.5736
rfoot 15.9149 12.6626
rtoes -0.472874
lfemur -25.2579 -5.41337 -20.9429
ltibia 28.1564
lfoot -4.43319 0.824999
ltoes -4.9682
